<svg width="75" height="76" viewBox="0 0 75 76" fill="none" xmlns="http://www.w3.org/2000/svg">
<path d="M18.0177 70.1279C15.2799 68.4149 12.8673 66.4015 10.675 64.116C6.99406 60.2809 4.2316 55.874 2.38765 50.89C1.52924 48.5691 0.930518 46.1842 0.519808 43.7431C0.0412898 40.9036 -0.0835412 38.0456 0.0505364 35.1837C0.331791 29.1741 1.94689 23.5367 5.0692 18.3762C7.63825 14.1304 10.9216 10.518 14.8892 7.51824C18.4939 4.79353 22.4492 2.78159 26.7698 1.48705C28.7709 0.887555 30.8129 0.490716 32.8926 0.241825C35.491 -0.069482 38.0885 -0.0648587 40.6815 0.167851C47.2559 0.758101 53.2601 2.95959 58.6833 6.7207C62.0746 9.07323 64.9719 11.9451 67.5109 15.1923C69.6854 17.9732 71.4045 21.0115 72.6821 24.2949C73.3995 26.1396 73.9243 28.0437 74.3134 29.9893C74.9183 33.0107 75.1032 36.0583 74.9476 39.1251C74.7603 42.8076 74.1084 46.4092 72.9179 49.9068C71.5332 53.9731 69.4797 57.6725 66.8027 61.0245C66.0545 61.9615 65.2377 62.8445 64.4533 63.753C64.3947 63.8208 64.3416 63.9326 64.2398 63.8694C64.135 63.8047 64.1805 63.6721 64.1805 63.5681C64.179 61.7958 64.1805 60.0243 64.1797 58.252C64.1767 52.227 64.1736 46.2027 64.1705 40.1777C64.1705 40.0852 64.1728 39.9928 64.169 39.9003C64.1659 39.8263 64.1759 39.74 64.0919 39.7C63.9871 39.6499 63.9147 39.7238 63.8522 39.7878C63.628 40.0205 63.4076 40.2563 63.1888 40.4944C61.1553 42.7028 59.1256 44.9151 57.0836 47.1158C56.8794 47.3362 56.8548 47.5736 56.8548 47.8355C56.8509 51.2098 56.8486 54.5841 56.8455 57.9584C56.8424 61.718 56.834 65.4775 56.8432 69.2371C56.844 69.5646 56.7169 69.7472 56.4587 69.9029C55.0509 70.752 53.6492 71.6112 52.2414 72.4596C52.0773 72.5582 51.8461 72.7193 51.719 72.6684C51.5071 72.5837 51.6512 72.314 51.6512 72.1275C51.6396 65.8258 51.6342 59.5242 51.6281 53.2225C51.6281 52.9297 51.6319 52.6369 51.6134 52.3449C51.5957 52.0551 51.4693 51.9873 51.2405 52.1985C50.2665 53.0969 49.207 53.8906 48.1675 54.7082C47.1642 55.4972 46.1424 56.2616 45.1315 57.0422C44.9157 57.2086 44.7454 57.1886 44.5119 57.0391C44.2276 56.8565 43.9494 56.4235 43.6258 56.5976C43.3715 56.7348 43.5611 57.1963 43.5603 57.5107C43.551 62.9031 43.551 68.2955 43.5603 73.6879C43.5611 73.973 43.4832 74.1009 43.2004 74.161C41.731 74.4723 40.2638 74.7952 38.799 75.1265C38.453 75.2051 38.4969 74.9971 38.4969 74.7882C38.5 72.539 38.4992 70.2889 38.5008 68.0397C38.5039 63.3554 38.5062 58.6712 38.5162 53.9877C38.517 53.7827 38.4777 53.6356 38.3012 53.52C37.8258 53.2071 37.3534 52.8897 36.8865 52.5637C36.7169 52.445 36.5736 52.4127 36.384 52.5367C34.6595 53.6633 32.905 54.7413 31.1257 55.7793C30.8907 55.9164 30.9084 56.1206 30.9084 56.3379C30.9107 59.9896 30.9107 63.6413 30.9123 67.293C30.9131 69.6655 30.9092 72.0389 30.92 74.4114C30.9215 74.7027 30.8807 74.7867 30.5702 74.6865C28.9528 74.1633 27.3307 73.654 25.7056 73.1577C25.4205 73.0707 25.3257 72.9458 25.3265 72.6407C25.3396 67.9102 25.3388 63.1805 25.3419 58.45C25.3419 58.3113 25.3434 58.1726 25.3542 58.0347C25.3766 57.7542 25.2579 57.6702 24.9951 57.7534C23.1034 58.3514 21.1462 58.6457 19.2028 59.0087C19.1874 59.0118 19.172 59.011 19.1566 59.0133C18.0562 59.1551 18.0539 59.1551 18.0516 60.2585C18.0462 63.4787 18.0431 66.6981 18.0385 69.9183C18.0393 69.9776 18.0277 70.0346 18.0177 70.1279ZM64.5296 63.2853C64.5958 63.2468 64.6436 63.2329 64.669 63.2013C65.4627 62.2096 66.3435 61.2957 67.1056 60.2686C67.9486 59.132 68.7299 57.9623 69.4897 56.7741C70.2787 55.5412 70.8859 54.2112 71.5086 52.8935C72.0595 51.7284 72.501 50.5109 72.884 49.2819C73.4249 47.5443 73.8588 45.782 74.1631 43.9789C74.4567 42.2374 74.6802 40.4929 74.7395 38.7352C74.7873 37.3243 74.7942 35.9096 74.684 34.4925C74.5654 32.9622 74.3365 31.4503 74.0799 29.9431C73.791 28.2494 73.3009 26.6004 72.7068 24.9915C71.7312 22.3492 70.4714 19.8464 68.9141 17.4916C67.3907 15.1884 65.5714 13.1372 63.6704 11.1491C62.6795 10.1135 61.5722 9.2127 60.4595 8.31654C59.5024 7.54598 58.5177 6.80855 57.4712 6.16898C56.0842 5.32136 54.6903 4.48608 53.2062 3.80182C51.5726 3.04898 49.9089 2.38784 48.1944 1.85769C46.7011 1.39613 45.1692 1.08328 43.6327 0.792776C42.0623 0.495339 40.4742 0.352786 38.8868 0.30347C37.2756 0.253383 35.659 0.22102 34.0431 0.360491C32.7439 0.472993 31.4594 0.665633 30.1803 0.89449C27.9703 1.28902 25.8505 1.99716 23.7515 2.77851C22.2049 3.35412 20.7286 4.07845 19.2922 4.87829C17.4937 5.88002 15.8178 7.07131 14.1849 8.32578C13.0738 9.17957 12.0266 10.1089 11.0472 11.0983C10.0671 12.0877 9.11619 13.1156 8.25085 14.2183C7.0665 15.7278 5.94225 17.2743 5.00139 18.9503C4.39342 20.0337 3.82012 21.131 3.31849 22.2706C2.77447 23.5051 2.30289 24.7603 1.89526 26.0433C1.31888 27.8572 0.885054 29.7035 0.636934 31.5913C0.527514 32.4259 0.347203 33.2627 0.354138 34.0972C0.365696 35.4318 0.213125 36.7572 0.298657 38.101C0.406536 39.7986 0.424259 41.4954 0.679315 43.1883C0.985998 45.2264 1.44294 47.2237 2.05323 49.1833C2.67507 51.179 3.46875 53.1123 4.43272 54.9725C5.18093 56.4157 5.98078 57.8274 6.91855 59.1582C7.96189 60.64 9.06996 62.0655 10.3052 63.3993C11.5512 64.7447 12.8565 66.0169 14.2766 67.1736C15.2167 67.9387 16.2092 68.633 17.1932 69.3396C17.3543 69.4552 17.5007 69.6655 17.7033 69.5846C17.9121 69.5006 17.8035 69.2541 17.8035 69.0838C17.8097 65.9098 17.8151 62.7351 17.8004 59.5612C17.7981 59.1458 17.98 58.8607 18.3329 58.8322C19.1913 58.7621 20.0304 58.5972 20.8719 58.4385C22.1618 58.1957 23.4648 58.0085 24.7239 57.6217C25.4529 57.3974 25.5708 57.4791 25.5708 58.2296C25.5715 62.9601 25.5769 67.6906 25.5607 72.4211C25.5592 72.8064 25.6848 72.9373 26.0362 73.0414C27.5341 73.4844 29.0244 73.9537 30.5101 74.4369C30.7412 74.5124 30.7559 74.4292 30.7451 74.2681C30.7266 73.9938 30.6649 73.7202 30.6642 73.4467C30.6588 67.7607 30.6634 62.0747 30.6518 56.3888C30.6511 56.0343 30.7836 55.8024 31.0471 55.6128C31.4578 55.3185 31.9094 55.0896 32.3409 54.8307C33.7094 54.0093 35.0502 53.1416 36.3995 52.2878C36.5751 52.1769 36.7123 52.163 36.8942 52.3002C37.3696 52.6585 37.8905 52.9521 38.3713 53.3065C38.6349 53.5007 38.7088 53.7011 38.7057 54.0016C38.695 55.1728 38.7019 56.3441 38.7019 57.5146C38.7019 63.1389 38.7065 68.7632 38.6934 74.3875C38.6926 74.8029 38.7712 74.9385 39.1974 74.806C40.3224 74.4561 41.506 74.3552 42.6348 74.0061C43.3145 73.7958 43.3245 73.8273 43.3245 73.1308C43.3245 67.9071 43.3245 62.6835 43.3253 57.4599C43.3253 57.3366 43.3176 57.2125 43.3283 57.09C43.3938 56.3318 43.5611 56.2362 44.2222 56.5752C44.3177 56.6246 44.4233 56.6623 44.5065 56.7278C44.7516 56.9205 44.9511 56.8819 45.2093 56.7055C46.238 56.0043 47.1865 55.1998 48.1736 54.4454C49.1846 53.6733 50.1563 52.8488 51.1418 52.0443C51.2936 51.9203 51.4131 51.7115 51.6481 51.8032C51.8885 51.8964 51.9055 52.1499 51.9078 52.351C51.9132 52.7171 51.8392 53.0838 51.8384 53.4499C51.8323 56.6546 51.8346 59.8602 51.8346 63.0649C51.8346 66.0385 51.8377 69.0129 51.83 71.9865C51.8292 72.3286 51.8723 72.4534 52.2152 72.2138C52.7115 71.8655 53.2039 71.4949 53.7448 71.2313C54.5886 70.8206 55.3545 70.2851 56.1721 69.8358C56.5489 69.6293 56.6776 69.3257 56.649 68.8834C56.6036 68.1776 56.6475 67.4664 56.6344 66.7574C56.5835 63.9418 56.696 61.1262 56.5782 58.309C56.5412 57.4159 56.6113 56.4967 56.6236 55.5912C56.6591 52.9721 56.6359 50.3522 56.6367 47.7331C56.6367 47.5204 56.6128 47.3123 56.7916 47.1305C57.1792 46.736 57.546 46.3214 57.9228 45.9161C58.8012 44.9698 59.692 44.0351 60.5566 43.0758C61.5953 41.923 62.6155 40.7533 63.7143 39.656C63.8291 39.5412 63.9486 39.4742 64.1196 39.4788C64.3092 39.4842 64.4001 39.5466 64.4024 39.7477C64.4186 41.5871 64.3886 43.4264 64.4803 45.2657C64.5118 45.9007 64.4148 46.541 64.4109 47.179C64.4001 49.0985 64.4071 51.018 64.4071 52.9382C64.4071 54.1333 64.3824 55.3293 64.4148 56.5236C64.4379 57.3658 64.4687 58.2011 64.4279 59.0472C64.3608 60.445 64.3531 61.8482 64.5296 63.2853ZM51.7244 52.6608C51.7121 52.6377 51.6997 52.6146 51.6874 52.5907C51.6728 52.613 51.6481 52.6346 51.6473 52.6577C51.6466 52.6808 51.6689 52.7055 51.6812 52.7294C51.6951 52.707 51.709 52.6847 51.7244 52.6608Z" fill="white"/>
<path d="M64.5296 63.285C64.3531 61.8479 64.3608 60.4455 64.4279 59.0508C64.4687 58.2047 64.4379 57.3686 64.4148 56.5272C64.3824 55.3328 64.4063 54.1369 64.4071 52.9418C64.4071 51.0223 64.4009 49.1028 64.4109 47.1826C64.4148 46.5446 64.5119 45.9042 64.4803 45.2693C64.3886 43.43 64.4186 41.5906 64.4024 39.7513C64.4009 39.5502 64.3092 39.487 64.1196 39.4824C63.9486 39.4778 63.8291 39.5448 63.7143 39.6596C62.6155 40.7569 61.5953 41.9266 60.5566 43.0794C59.692 44.0387 58.8012 44.9734 57.9228 45.9197C57.5468 46.325 57.1792 46.7395 56.7916 47.1341C56.6128 47.3159 56.6367 47.5232 56.6367 47.7366C56.6359 50.3565 56.6591 52.9757 56.6236 55.5948C56.6113 56.5002 56.5404 57.4195 56.5782 58.3126C56.6961 61.1298 56.5835 63.9454 56.6344 66.761C56.6475 67.4699 56.6036 68.1804 56.649 68.887C56.6776 69.3293 56.5489 69.6329 56.1721 69.8394C55.3537 70.2879 54.5878 70.8242 53.7448 71.2349C53.2031 71.4984 52.7115 71.8691 52.2152 72.2174C51.8731 72.4578 51.8292 72.3322 51.83 71.9901C51.8377 69.0165 51.8346 66.0421 51.8346 63.0685C51.8346 59.8637 51.8323 56.6582 51.8384 53.4534C51.8392 53.0866 51.9139 52.7206 51.9078 52.3546C51.9047 52.1535 51.8885 51.9 51.6481 51.8067C51.4131 51.7158 51.2936 51.9239 51.1418 52.0479C50.1563 52.8524 49.1846 53.6769 48.1736 54.449C47.1866 55.2034 46.238 56.0078 45.2093 56.7091C44.9519 56.8847 44.7523 56.924 44.5065 56.7314C44.4233 56.6659 44.3185 56.6274 44.2222 56.5788C43.5611 56.2406 43.3931 56.3361 43.3283 57.0936C43.3176 57.2161 43.3253 57.3401 43.3253 57.4634C43.3253 62.6871 43.3253 67.9107 43.3245 73.1343C43.3245 73.8309 43.3145 73.7993 42.6348 74.0097C41.5067 74.3588 40.3224 74.4597 39.1974 74.8095C38.7712 74.9421 38.6926 74.8065 38.6934 74.3911C38.7065 68.7668 38.7019 63.1425 38.7019 57.5181C38.7019 56.3469 38.695 55.1756 38.7058 54.0051C38.7088 53.7046 38.6349 53.5035 38.3713 53.3101C37.8897 52.9556 37.3696 52.6628 36.8942 52.3037C36.7123 52.1666 36.5744 52.1805 36.3995 52.2914C35.0502 53.1452 33.7094 54.0129 32.3409 54.8343C31.9094 55.0932 31.4578 55.322 31.0471 55.6164C30.7836 55.8052 30.6511 56.0371 30.6518 56.3923C30.6634 62.0783 30.6588 67.7643 30.6642 73.4503C30.6642 73.7238 30.7258 73.9974 30.7451 74.2717C30.7559 74.432 30.7412 74.5152 30.5101 74.4404C29.0244 73.9573 27.5342 73.488 26.0362 73.045C25.6848 72.9409 25.56 72.8092 25.5607 72.4246C25.5769 67.6942 25.5708 62.9637 25.5708 58.2332C25.5708 57.4827 25.4529 57.401 24.7239 57.6252C23.4648 58.0128 22.1618 58.1993 20.8719 58.442C20.0304 58.6008 19.1913 58.7657 18.3329 58.8358C17.98 58.8643 17.7989 59.1494 17.8004 59.5648C17.8158 62.7387 17.8104 65.9134 17.8035 69.0873C17.8035 69.2584 17.9121 69.5042 17.7033 69.5882C17.5007 69.6699 17.3543 69.4588 17.1932 69.3432C16.2092 68.6366 15.2167 67.9431 14.2766 67.1771C12.8565 66.0205 11.5504 64.7483 10.3052 63.4029C9.06996 62.0691 7.96189 60.6435 6.91855 59.1617C5.98155 57.831 5.18093 56.4193 4.43272 54.9761C3.46875 53.1159 2.67507 51.1826 2.05322 49.1868C1.44294 47.2273 0.985996 45.23 0.679313 43.1919C0.424257 41.4989 0.406534 39.8022 0.298655 38.1046C0.213123 36.7608 0.365694 35.4354 0.354136 34.1008C0.347201 33.2663 0.527512 32.4294 0.636932 31.5949C0.885053 29.707 1.31811 27.8608 1.89526 26.0469C2.30289 24.7639 2.77447 23.5086 3.31849 22.2742C3.82089 21.1338 4.39342 20.0373 5.00139 18.9539C5.94225 17.2779 7.06573 15.7314 8.25085 14.2218C9.11619 13.1199 10.0663 12.092 11.0472 11.1018C12.0274 10.1124 13.0746 9.18314 14.1849 8.32936C15.8178 7.07488 17.4945 5.88282 19.2922 4.88186C20.7278 4.08202 22.2049 3.35846 23.7515 2.78208C25.8505 2.00073 27.9703 1.29259 30.1803 0.898061C31.4602 0.669204 32.7439 0.476563 34.0431 0.364062C35.659 0.22459 37.2756 0.256953 38.8868 0.30704C40.4742 0.356356 42.0623 0.49891 43.6327 0.796346C45.17 1.08762 46.7011 1.3997 48.1944 1.86126C49.9089 2.39141 51.5726 3.05178 53.2062 3.80539C54.691 4.48965 56.0842 5.32494 57.4712 6.17255C58.5177 6.81212 59.5024 7.54955 60.4595 8.32011C61.5722 9.21627 62.6802 10.1171 63.6704 11.1527C65.5721 13.1407 67.3914 15.192 68.9141 17.4952C70.4714 19.85 71.7312 22.352 72.7068 24.9951C73.3009 26.604 73.791 28.2538 74.0799 29.9467C74.3373 31.4539 74.5661 32.965 74.684 34.4961C74.7935 35.9131 74.7873 37.3279 74.7395 38.7388C74.6802 40.4964 74.4567 42.241 74.1631 43.9825C73.8595 45.7856 73.4249 47.5478 72.884 49.2855C72.5018 50.5145 72.0603 51.732 71.5086 52.8971C70.8852 54.2147 70.278 55.544 69.4897 56.7776C68.7291 57.9658 67.9486 59.1355 67.1056 60.2721C66.3442 61.2993 65.4627 62.2132 64.669 63.2049C64.6436 63.2326 64.5958 63.2457 64.5296 63.285ZM12.7779 57.6507C13.2888 57.7701 13.7742 57.8025 14.2666 57.7909C15.1412 57.7717 16.0189 57.6884 16.8757 57.5721C18.6765 57.3278 20.4835 57.082 22.2512 56.6312C23.9102 56.2082 25.553 55.752 27.1612 55.144C28.9466 54.469 30.6765 53.6831 32.3355 52.7622C33.6694 52.0225 34.9793 51.2211 36.1929 50.2803C36.7593 49.841 36.9065 49.8534 37.5044 50.2525C37.8111 50.4567 38.1047 50.6802 38.4129 50.8813C40.26 52.0865 42.1101 53.2854 43.9579 54.4898C44.4934 54.8389 44.6283 54.8374 45.143 54.4428C46.3358 53.5289 47.5703 52.6721 48.7385 51.7235C50.0831 50.6316 51.3538 49.4558 52.6444 48.3045C53.7533 47.3144 54.7812 46.2325 55.8492 45.1945C57.1514 43.9301 58.4352 42.6455 59.6789 41.3186C61.5175 39.356 63.3606 37.3996 65.1445 35.3868C65.4165 35.0802 65.6215 34.7088 65.9844 34.476C66.174 34.3543 66.3188 34.3235 66.5253 34.4352C67.2404 34.8236 67.9617 35.1996 68.6875 35.5664C69.2416 35.8461 69.4897 35.6897 69.4897 35.0763C69.4904 32.1335 69.4904 29.1908 69.4897 26.248C69.4897 25.6238 69.3048 25.4975 68.6945 25.7132C68.1158 25.9182 67.5525 26.1763 66.9622 26.3381C65.6184 26.7072 64.3554 27.306 63.0077 27.6666C62.0029 27.9355 61.0289 28.3223 60.0403 28.6529C59.9078 28.6968 59.7066 28.6182 59.6943 28.8587C59.6851 29.0467 59.7097 29.1938 59.8923 29.3325C60.5111 29.8034 61.2316 30.0754 61.9212 30.4021C62.2063 30.5369 62.3435 30.5793 62.0615 30.8837C61.3626 31.6373 60.6999 32.424 60.0218 33.1969C58.9392 34.4306 57.855 35.6627 56.7739 36.8971C55.934 37.8557 55.0617 38.7866 54.231 39.7505C52.8787 41.3186 51.4986 42.8597 50.0538 44.3392C48.4842 45.9466 46.9261 47.5679 45.2524 49.072C44.7539 49.5205 44.7346 49.5505 44.1636 49.1591C41.899 47.6056 39.6343 46.0522 37.3804 44.4833C37.0937 44.2837 36.8518 44.2938 36.5736 44.4409C35.2428 45.1437 34.0716 46.0953 32.7809 46.8651C31.4787 47.6419 30.2519 48.5434 28.9589 49.3363C27.3901 50.298 25.7988 51.2234 24.1622 52.0687C23.1003 52.6174 22.0547 53.1984 20.9805 53.7193C19.77 54.3064 18.5378 54.8505 17.3088 55.3999C16.1753 55.9061 15.021 56.3669 13.9037 56.9048C13.5184 57.0912 12.9644 57.0666 12.7779 57.6507ZM20.1167 30.6756C20.1167 32.4317 20.126 34.1886 20.1129 35.9447C20.1075 36.713 20.2901 37.4427 20.566 38.1385C21.6401 40.8509 24.1329 42.4352 27.0025 42.4413C27.602 42.4429 28.1922 42.3381 28.7948 42.3419C29.748 42.3473 30.695 42.4544 31.6497 42.4483C36.7154 42.4159 41.7818 42.4945 46.8467 42.3504C46.9847 42.3466 47.1241 42.3412 47.2582 42.3142C48.898 41.9829 50.3042 41.2477 51.4069 39.9594C52.4086 38.7896 53.0289 37.4774 53.0313 35.9139C53.0351 33.4859 53.0343 31.0586 53.0343 28.6306C53.0343 27.4285 53.012 26.2264 53.0382 25.0251C53.0652 23.7676 52.6128 22.6649 51.9016 21.6893C50.4738 19.7321 48.4865 18.7982 46.0785 18.7789C43.4593 18.7581 40.8402 18.7681 38.2203 18.7797C37.882 18.7812 37.7595 18.6934 37.7718 18.3405C37.7973 17.6015 37.805 16.8602 37.7687 16.1228C37.7472 15.6828 37.9036 15.4224 38.2704 15.1889C39.3045 14.5308 39.8978 13.5607 39.9787 12.3455C40.0635 11.0656 39.4987 10.0662 38.4538 9.32415C36.3825 7.85238 33.8859 9.0768 33.2633 11.2768C32.8086 12.8834 33.5114 14.4014 34.9231 15.2659C35.138 15.3977 35.1935 15.5711 35.1912 15.8061C35.1835 16.6383 35.1681 17.4705 35.1982 18.302C35.2128 18.7019 35.0656 18.7859 34.695 18.7836C32.4303 18.7682 30.1648 18.7759 27.9002 18.7759C26.9971 18.7759 26.1078 18.8344 25.2124 19.0271C24.297 19.2236 23.4779 19.5888 22.7798 20.1621C21.0799 21.5584 20.1213 23.3507 20.1175 25.593C20.1152 27.2859 20.1175 28.9804 20.1167 30.6756ZM18.7274 31.5757C18.7274 30.2826 18.7289 28.9904 18.7259 27.6974C18.7251 27.5071 18.7798 27.296 18.5217 27.1904C18.3044 27.101 18.1549 27.148 17.9923 27.3067C17.8297 27.4662 17.6301 27.588 17.4521 27.7336C16.3071 28.6691 15.6644 29.9028 15.6082 31.3506C15.5311 33.3225 16.4319 34.8536 18.0447 35.9763C18.2342 36.1081 18.3891 36.0272 18.564 35.9732C18.7767 35.9077 18.7259 35.7367 18.7259 35.5926C18.7289 34.2534 18.7282 32.9141 18.7274 31.5757ZM54.5107 31.5286C54.5107 32.9126 54.513 34.2973 54.5084 35.6812C54.5077 35.8785 54.5169 36.0303 54.7565 36.0996C54.9885 36.1674 55.0455 36.0064 55.1565 35.8854C55.457 35.5571 55.7729 35.2435 56.0727 34.9137C56.7253 34.1963 57.3903 33.4466 57.6069 32.4934C58.1355 30.1694 57.4658 28.4025 55.4054 27.0193C55.2351 26.9053 55.0617 26.7835 54.8182 26.9138C54.5601 27.0517 54.5038 27.2436 54.5061 27.5148C54.5169 28.8525 54.5107 30.1902 54.5107 31.5286Z" fill="white"/>
<path d="M51.7244 52.6609C51.709 52.6848 51.6951 52.7072 51.6812 52.7295C51.6689 52.7056 51.6466 52.6817 51.6473 52.6579C51.6481 52.6347 51.6728 52.6132 51.6874 52.5908C51.6997 52.6139 51.7121 52.6378 51.7244 52.6609Z" fill="white"/>
<path d="M12.7779 57.6508C12.9644 57.0674 13.5184 57.0913 13.9037 56.9056C15.021 56.367 16.1753 55.907 17.3088 55.4007C18.5379 54.8513 19.77 54.3081 20.9805 53.7201C22.0555 53.1992 23.1011 52.6182 24.1622 52.0696C25.7981 51.2243 27.3901 50.2988 28.9589 49.3372C30.2519 48.5443 31.4787 47.6427 32.7809 46.866C34.0716 46.0962 35.2429 45.1453 36.5736 44.4418C36.8518 44.2946 37.0937 44.2846 37.3804 44.4842C39.6343 46.053 41.899 47.6065 44.1636 49.1599C44.7346 49.5514 44.7539 49.5206 45.2524 49.0729C46.9261 47.5687 48.4842 45.9475 50.0538 44.3401C51.4986 42.8606 52.8787 41.3195 54.231 39.7514C55.0617 38.7882 55.934 37.8566 56.7739 36.898C57.855 35.6636 58.9399 34.4314 60.0218 33.1978C60.6999 32.4249 61.3633 31.6382 62.0615 30.8845C62.3435 30.5809 62.2063 30.5386 61.9212 30.4029C61.2308 30.0762 60.5111 29.8042 59.8923 29.3334C59.7105 29.1947 59.6851 29.0475 59.6943 28.8595C59.7059 28.6191 59.9078 28.6977 60.0403 28.6538C61.0289 28.3232 62.0029 27.9364 63.0077 27.6674C64.3554 27.3068 65.6184 26.7081 66.9622 26.339C67.5525 26.1772 68.1158 25.919 68.6945 25.7141C69.3048 25.4975 69.4897 25.6239 69.4897 26.2488C69.4905 29.1916 69.4905 32.1344 69.4897 35.0772C69.4897 35.6905 69.2416 35.847 68.6875 35.5672C67.9617 35.2005 67.2396 34.8237 66.5253 34.4361C66.3188 34.3236 66.174 34.3552 65.9844 34.4769C65.6215 34.7096 65.4165 35.0802 65.1445 35.3877C63.3606 37.4004 61.5175 39.3569 59.6789 41.3195C58.436 42.6464 57.1515 43.9301 55.8492 45.1954C54.7812 46.2326 53.7533 47.3152 52.6444 48.3054C51.3545 49.4574 50.0839 50.6325 48.7385 51.7244C47.5703 52.6729 46.3351 53.5298 45.143 54.4437C44.6283 54.8382 44.4934 54.8398 43.9579 54.4907C42.1109 53.2863 40.26 52.0865 38.4129 50.8821C38.1047 50.681 37.8104 50.4576 37.5045 50.2534C36.9065 49.8542 36.7593 49.8419 36.193 50.2811C34.9793 51.222 33.6694 52.0234 32.3355 52.7631C30.6757 53.6839 28.9466 54.4707 27.1612 55.1449C25.5523 55.7529 23.9094 56.209 22.2512 56.6321C20.4835 57.0829 18.6766 57.3287 16.8758 57.5729C16.0189 57.6893 15.1412 57.7725 14.2666 57.7918C13.7742 57.8018 13.288 57.7702 12.7779 57.6508ZM13.3327 57.4242C13.7149 57.6084 14.0193 57.5329 14.3098 57.5205C17.3281 57.388 20.2893 56.8848 23.2175 56.1543C26.4985 55.336 29.5854 54.0484 32.5274 52.3917C33.882 51.6288 35.1581 50.7442 36.4411 49.8712C36.7239 49.6793 36.9805 49.6292 37.2879 49.8357C39.5696 51.3707 41.835 52.9288 44.1714 54.3813C44.4403 54.5485 44.6013 54.5701 44.8548 54.3851C46.4329 53.2339 48.0087 52.0827 49.4975 50.8128C52.582 48.1813 55.4539 45.3256 58.3034 42.4499C60.8609 39.8701 63.3167 37.1908 65.6978 34.4453C66.0006 34.0955 66.2741 34.0223 66.6879 34.2627C67.3907 34.6711 68.1273 35.0217 68.8378 35.4178C69.1607 35.5981 69.2932 35.5295 69.2924 35.1673C69.2924 35.0132 69.2994 34.8591 69.2994 34.705C69.2986 31.9009 69.297 29.0968 69.2955 26.2935C69.2955 25.7773 69.2955 25.778 68.7846 25.9506C66.3358 26.7775 63.8831 27.5927 61.4412 28.4396C60.8902 28.6307 60.3123 28.7447 59.6974 28.9797C60.1767 29.2702 60.5674 29.5337 61.0027 29.7272C61.4496 29.9267 61.8881 30.1456 62.3289 30.359C62.5546 30.4677 62.5939 30.5771 62.4013 30.7936C61.5421 31.7591 60.7076 32.7462 59.8569 33.7194C57.2239 36.7323 54.6109 39.7637 51.8947 42.7026C49.7417 45.0328 47.5248 47.299 45.187 49.4466C44.8618 49.7448 44.5921 49.7664 44.253 49.5275C43.8007 49.2085 43.3422 48.8987 42.8876 48.5836C41.019 47.2867 39.1488 45.9914 37.2833 44.6899C37.0444 44.5235 36.8603 44.4842 36.5921 44.6768C36.0435 45.0706 35.4517 45.4035 34.8861 45.7749C31.3446 48.1058 27.7915 50.416 24.042 52.4079C21.1138 53.9636 18.1002 55.3329 15.0634 56.6552C14.5124 56.8964 13.963 57.1445 13.3327 57.4242Z" fill="white"/>
<path d="M20.1175 30.6758C20.1183 28.9814 20.1152 27.2861 20.1183 25.5917C20.1221 23.3493 21.0807 21.557 22.7806 20.1607C23.4787 19.5874 24.297 19.2222 25.2132 19.0257C26.1086 18.8331 26.9971 18.7745 27.9009 18.7745C30.1656 18.7745 32.4311 18.7668 34.6957 18.7822C35.0656 18.7845 35.2128 18.7005 35.1989 18.3006C35.1689 17.4699 35.1843 16.637 35.192 15.8048C35.1943 15.5697 35.1388 15.3964 34.9238 15.2646C33.5129 14.4 32.8094 12.882 33.264 11.2754C33.8867 9.07545 36.3833 7.85102 38.4545 9.3228C39.4994 10.0656 40.065 11.0643 39.9795 12.3442C39.8986 13.5593 39.3052 14.5302 38.2711 15.1875C37.9044 15.421 37.7479 15.6815 37.7695 16.1215C37.805 16.8597 37.7973 17.6009 37.7726 18.3391C37.7603 18.6928 37.8828 18.7799 38.2211 18.7784C40.8402 18.7668 43.4601 18.7568 46.0792 18.7776C48.4865 18.7961 50.4745 19.7308 51.9024 21.688C52.6144 22.6635 53.0659 23.7662 53.039 25.0238C53.0135 26.2251 53.0351 27.4271 53.0351 28.6292C53.0351 31.0573 53.0359 33.4845 53.032 35.9126C53.0297 37.476 52.4086 38.7883 51.4077 39.958C50.3042 41.2464 48.898 41.9815 47.259 42.3128C47.1249 42.3398 46.9847 42.3452 46.8475 42.3491C41.7826 42.4932 36.7162 42.4146 31.6505 42.4469C30.6958 42.4531 29.7487 42.3467 28.7956 42.3406C28.1937 42.3367 27.6027 42.4415 27.0032 42.44C24.1337 42.4338 21.6409 40.8495 20.5667 38.1372C20.2916 37.4421 20.1082 36.7116 20.1136 35.9434C20.126 34.1888 20.1167 32.4319 20.1175 30.6758ZM36.3894 42.2042C36.3894 42.2065 36.3894 42.2088 36.3894 42.2111C39.0702 42.2111 41.751 42.2142 44.431 42.2096C45.5522 42.208 46.6703 42.2288 47.7783 41.9599C50.7095 41.2487 52.8586 38.5748 52.8648 35.562C52.8717 32.1884 52.8617 28.8141 52.8679 25.4406C52.8694 24.835 52.7747 24.2478 52.6051 23.6722C51.833 21.0523 49.3973 19.1243 46.6718 19.0727C43.7768 19.0172 40.8795 19.0357 37.9837 19.0365C37.6832 19.0365 37.5815 18.9648 37.5884 18.652C37.6108 17.6664 37.6115 16.6801 37.6015 15.6946C37.5992 15.4295 37.6917 15.2916 37.9252 15.1583C39.1527 14.4563 39.7676 13.389 39.7298 11.9681C39.679 10.0741 37.8104 8.58306 35.8716 9.02151C34.584 9.31278 33.5807 10.417 33.422 11.6067C33.217 13.1409 33.8481 14.4493 35.1419 15.1351C35.3515 15.2461 35.4193 15.3748 35.417 15.6052C35.4062 16.6216 35.3946 17.6387 35.4247 18.6543C35.4355 19.008 35.3122 19.0504 35.0055 19.0488C32.2785 19.0388 29.5522 19.0396 26.8252 19.048C24.5906 19.055 22.8168 19.9743 21.5346 21.8036C20.6677 23.0396 20.3325 24.4397 20.3363 25.9376C20.3433 28.8342 20.3271 31.73 20.3417 34.6265C20.3464 35.4703 20.324 36.3148 20.5074 37.1539C21.1292 39.9958 23.5565 42.1449 26.638 42.1934C29.8874 42.2435 33.1392 42.2042 36.3894 42.2042Z" fill="white"/>
<path d="M54.5107 31.529C54.5107 30.1913 54.5169 28.8528 54.5061 27.5152C54.5038 27.2439 54.5593 27.052 54.8182 26.9141C55.0609 26.7839 55.235 26.9056 55.4053 27.0197C57.4658 28.4028 58.1354 30.1705 57.6068 32.4937C57.3903 33.4469 56.7253 34.1967 56.0726 34.9141C55.7737 35.2431 55.457 35.5575 55.1564 35.8858C55.0455 36.0075 54.9885 36.1678 54.7565 36.1C54.5177 36.0306 54.5084 35.8781 54.5084 35.6816C54.513 34.2969 54.5107 32.9129 54.5107 31.529ZM54.7265 36.0615C55.2189 35.5228 55.6342 35.0744 56.0434 34.6205C57.1761 33.3637 57.8627 31.9559 57.4735 30.2113C57.173 28.8636 56.3847 27.8588 55.2088 27.1576C54.8544 26.9457 54.7326 27.0389 54.7326 27.462C54.7319 28.6787 54.7272 29.8954 54.7265 31.1129C54.7257 32.7234 54.7265 34.3339 54.7265 36.0615Z" fill="white"/>
<path d="M25.5122 30.1244C25.3866 27.963 27.4201 26.2253 29.3581 26.287C31.4424 26.3525 33.0252 27.9476 33.0645 30.0103C33.1084 32.3598 31.051 33.9911 29.1855 33.9456C27.1103 33.8955 25.338 31.9514 25.5122 30.1244ZM29.2124 33.662C31.437 33.7175 32.8811 31.9637 32.8526 29.9464C32.8241 27.9599 31.1951 26.4773 29.3696 26.5259C27.0918 26.5867 25.7626 28.0639 25.6948 30.1329C25.6347 31.936 27.1442 33.7522 29.2124 33.662Z" fill="white"/>
<path d="M43.9872 26.2996C46.1494 26.2911 47.8238 27.927 47.8615 30.0322C47.8993 32.1474 46.0338 33.9474 44.0681 33.9328C41.8951 33.9166 40.2037 32.2853 40.2006 30.1516C40.1983 27.9671 41.8288 26.3081 43.9872 26.2996ZM47.5772 30.0599C47.7675 28.3023 46.1031 26.5146 44.149 26.5231C41.8789 26.5331 40.4803 28.0272 40.3886 30.1408C40.3077 31.9979 42.0877 33.8018 43.9255 33.7363C45.8966 33.6669 47.6466 32.3346 47.5772 30.0599Z" fill="white"/>
<path d="M29.2124 33.6619C27.1442 33.7513 25.6347 31.9359 25.694 30.1335C25.7618 28.0646 27.0918 26.5874 29.3688 26.5265C31.1943 26.478 32.8233 27.9606 32.8518 29.9471C32.8811 31.9636 31.4363 33.7174 29.2124 33.6619Z" fill="white"/>
<path d="M47.5772 30.0603C47.6466 32.335 45.8974 33.6673 43.9263 33.7374C42.0885 33.8029 40.3085 31.9983 40.3894 30.142C40.4811 28.0283 41.8797 26.535 44.1498 26.5242C46.1031 26.515 47.7668 28.3027 47.5772 30.0603Z" fill="white"/>
</svg>
